name rise42.5664peak47.7979fall81.9185.mot
datacolumns 19
datarows 17
range 22.80491500000000 22.83157800000000
endheader
time	ground_force1_vx	ground_force1_vy	ground_force1_vz	ground_force1_px	ground_force1_py	ground_force1_pz	ground_force2_vx	ground_force2_vy	ground_force2_vz	ground_force2_px	ground_force2_py	ground_force2_pz	ground_torque1_x	ground_torque1_y	ground_torque1_z	ground_torque2_x	ground_torque2_y	ground_torque2_z	
22.80491500000000	-8.51505100000000	42.23317400000000	-10.72805100000000	0.23333300000000	0.00000000000000	0.08403600000000	-45.12535600000000	762.04287599999998	-53.79154700000000	0.06799800000000	0.00000000000000	-0.09169600000000	0.00000000000000	-5.34659300000000	0.00000000000000	0.00000000000000	-13.45852000000000	0.00000000000000	
22.80657400000000	-9.30718000000000	49.55301900000000	-12.03124400000000	0.23940800000000	0.00000000000000	0.08502700000000	-45.33966800000000	758.65222800000004	-53.23889500000000	0.06740100000000	0.00000000000000	-0.09161700000000	0.00000000000000	-6.09535500000000	0.00000000000000	0.00000000000000	-13.39246500000000	0.00000000000000	
22.80825600000000	-9.93046200000000	56.98329200000000	-13.20460900000000	0.24501300000000	0.00000000000000	0.08592600000000	-45.56785000000000	755.15495499999997	-52.66726500000000	0.06680900000000	0.00000000000000	-0.09153300000000	0.00000000000000	-6.79749800000000	0.00000000000000	0.00000000000000	-13.32989800000000	0.00000000000000	
22.80991300000000	-10.36194600000000	64.43134400000000	-14.22008000000000	0.25022000000000	0.00000000000000	0.08674700000000	-45.80991700000000	751.54993600000000	-52.07692200000000	0.06622300000000	0.00000000000000	-0.09144500000000	0.00000000000000	-7.43668300000000	0.00000000000000	0.00000000000000	-13.27085000000000	0.00000000000000	
22.81158300000000	-10.58839600000000	71.82742700000000	-15.05944800000000	0.25508400000000	0.00000000000000	0.08750000000000	-46.06580700000000	747.83599600000002	-51.46813500000000	0.06564400000000	0.00000000000000	-0.09135300000000	0.00000000000000	-8.00124800000000	0.00000000000000	0.00000000000000	-13.21533700000000	0.00000000000000	
22.81325100000000	-10.60610000000000	79.12689000000000	-15.71443000000000	0.25965100000000	0.00000000000000	0.08819400000000	-46.33538100000000	744.01191100000005	-50.84118500000000	0.06507200000000	0.00000000000000	-0.09125600000000	0.00000000000000	-8.48445800000000	0.00000000000000	0.00000000000000	-13.16335100000000	0.00000000000000	
22.81493300000000	-10.41994000000000	86.30994500000000	-16.18592600000000	0.26395800000000	0.00000000000000	0.08883800000000	-46.61841900000000	740.07641100000001	-50.19636000000000	0.06450900000000	0.00000000000000	-0.09115500000000	0.00000000000000	-8.88431700000000	0.00000000000000	0.00000000000000	-13.11487100000000	0.00000000000000	
22.81658000000000	-10.04191000000000	93.37941400000000	-16.48264600000000	0.26803500000000	0.00000000000000	0.08943600000000	-46.91461900000000	736.02818600000001	-49.53396000000000	0.06395600000000	0.00000000000000	-0.09104800000000	0.00000000000000	-9.20300800000000	0.00000000000000	0.00000000000000	-13.06985200000000	0.00000000000000	
22.81824400000000	-9.48931500000000	100.35700600000000	-16.61933500000000	0.27190600000000	0.00000000000000	0.08999500000000	-47.22359700000000	731.86588500000005	-48.85429200000000	0.06341300000000	0.00000000000000	-0.09093700000000	0.00000000000000	-9.44610200000000	0.00000000000000	0.00000000000000	-13.02823300000000	0.00000000000000	
22.81991400000000	-8.78283300000000	107.27867800000000	-16.61480500000000	0.27559200000000	0.00000000000000	0.09051900000000	-47.54488400000000	727.58812899999998	-48.15767600000000	0.06288200000000	0.00000000000000	-0.09082200000000	0.00000000000000	-9.62160600000000	0.00000000000000	0.00000000000000	-12.98993100000000	0.00000000000000	
22.82157800000000	-7.94465100000000	114.18962000000001	-16.48998500000000	0.27910800000000	0.00000000000000	0.09101100000000	-47.87792500000000	723.19350999999995	-47.44444100000000	0.06236400000000	0.00000000000000	-0.09070100000000	0.00000000000000	-9.73898300000000	0.00000000000000	0.00000000000000	-12.95484600000000	0.00000000000000	
22.82325900000000	-6.99678700000000	121.13935499999999	-16.26612300000000	0.28247000000000	0.00000000000000	0.09147500000000	-48.22208200000000	718.68060000000003	-46.71492900000000	0.06185800000000	0.00000000000000	-0.09057500000000	0.00000000000000	-9.80821200000000	0.00000000000000	0.00000000000000	-12.92285700000000	0.00000000000000	
22.82491300000000	-5.95971600000000	128.17730399999999	-15.96328500000000	0.28568900000000	0.00000000000000	0.09191400000000	-48.57662900000000	714.04795999999999	-45.96949400000000	0.06136700000000	0.00000000000000	-0.09044400000000	0.00000000000000	-9.83896900000000	0.00000000000000	0.00000000000000	-12.89382200000000	0.00000000000000	
22.82657900000000	-4.85135300000000	135.34909500000001	-15.59918600000000	0.28877500000000	0.00000000000000	0.09232900000000	-48.94075400000000	709.29414299999996	-45.20850500000000	0.06089000000000	0.00000000000000	-0.09030800000000	0.00000000000000	-9.83996500000000	0.00000000000000	0.00000000000000	-12.86758200000000	0.00000000000000	
22.82824600000000	-3.68640600000000	142.69377499999999	-15.18841500000000	0.29173500000000	0.00000000000000	0.09272300000000	-49.31355900000000	704.41770699999995	-44.43234500000000	0.06042900000000	0.00000000000000	-0.09016700000000	0.00000000000000	-9.81848000000000	0.00000000000000	0.00000000000000	-12.84395900000000	0.00000000000000	
22.82993000000000	-2.47608200000000	150.24196000000001	-14.74202600000000	0.29457600000000	0.00000000000000	0.09309900000000	-49.69406200000000	699.41722200000004	-43.64141200000000	0.05998400000000	0.00000000000000	-0.09002100000000	0.00000000000000	-9.78007300000000	0.00000000000000	0.00000000000000	-12.82275500000000	0.00000000000000	
22.83157800000000	-1.22811200000000	158.01491500000000	-14.26746500000000	0.29730500000000	0.00000000000000	0.09345700000000	-50.08119500000000	694.29127800000003	-42.83612200000000	0.05955600000000	0.00000000000000	-0.08986900000000	0.00000000000000	-9.72848700000000	0.00000000000000	0.00000000000000	-12.80375300000000	0.00000000000000	
